<svg width="1252" height="713" viewBox="0 0 1252 713" fill="none" xmlns="http://www.w3.org/2000/svg">
<rect x="718.41" y="146.786" width="117.427" height="117.429" fill="#2AC558"/>
<path d="M835.833 117.429H806.476V117.395H689.143V243.351H689.047V264.214H571.62V243.351H571.523V105.678H571.618V0H835.833V117.429Z" fill="white"/>
<path d="M542.263 58.7142H542.23V293.572H542.263V293.599H659.625V293.668H777.115V293.572H835.828V411H648.26V410.994H542.263V411H424.836V0H542.263V58.7142Z" fill="white"/>
<path d="M52.5267 624.641H128.991V659.924H13.9542V497.238H52.5267V624.641ZM158.892 527.756L158.665 527.643C152.765 527.643 147.774 525.601 143.576 521.516C139.379 517.432 137.336 512.441 137.336 506.541C137.336 500.755 139.492 495.877 143.69 491.906C147.887 487.936 152.879 485.894 158.778 485.894C164.678 485.894 169.669 487.936 173.867 492.02C178.065 496.104 180.22 500.982 180.22 506.655C180.22 512.554 178.178 517.546 173.98 521.63C169.783 525.714 164.791 527.756 158.892 527.756ZM139.605 659.81V541.37H176.703V659.81H139.605ZM270.589 538.193V538.42C285.904 538.42 297.476 543.185 305.191 552.601C312.905 562.018 316.762 574.837 316.762 591.06V660.037H279.665V598.435C279.665 581.304 272.631 572.682 258.45 572.682C251.302 572.682 245.743 575.291 241.659 580.51C237.575 585.728 235.533 592.876 235.533 602.065V659.924H198.322V541.483H235.533V553.736C244.496 543.412 256.181 538.193 270.589 538.193ZM394.652 663.214L394.538 663.327C375.138 663.327 359.483 657.541 347.457 645.97C335.431 634.398 329.419 619.423 329.419 600.931C329.419 582.779 335.205 567.804 346.776 556.005C358.348 544.206 373.437 538.307 392.156 538.307C411.215 538.307 426.304 544.093 437.422 555.664C448.54 567.236 454.099 581.871 454.099 599.569C454.099 604.221 453.758 608.305 453.191 611.822H365.609C368.445 625.435 378.315 632.242 395.219 632.242C406.564 632.242 414.505 628.272 418.93 620.217L452.397 629.973C448.653 638.482 441.733 646.197 431.522 653.003C421.312 659.81 409.06 663.214 394.652 663.214ZM365.722 589.586H417.909C417.341 584.027 414.732 579.262 409.967 575.291C405.202 571.32 399.19 569.392 391.929 569.392C384.668 569.392 378.655 571.434 374.004 575.405C369.353 579.375 366.63 584.14 365.722 589.586ZM518.828 663.214H518.715C502.605 663.214 488.991 657.201 477.873 645.289C466.755 633.377 461.196 618.515 461.196 600.704C461.196 582.892 466.755 568.03 477.873 556.118C488.991 544.206 502.605 538.193 518.715 538.193C532.782 538.193 544.127 542.958 552.863 552.374V541.483H590.074V659.924H552.863V649.033C543.9 658.449 532.555 663.214 518.828 663.214ZM525.522 630.2L525.408 630.314C533.69 630.314 540.497 627.591 545.829 622.032C551.161 616.473 553.884 609.326 553.884 600.59C553.884 591.855 551.161 584.821 545.829 579.375C540.497 573.93 533.69 571.207 525.522 571.207C517.467 571.207 510.887 573.93 505.668 579.375C500.449 584.821 497.84 591.855 497.84 600.59C497.84 609.439 500.449 616.586 505.668 622.032C510.887 627.478 517.467 630.2 525.522 630.2ZM611.012 659.924V490.318H648.223V659.924H611.012Z" fill="white"/>
<path d="M828.802 532.181H744.055V560.429H817.003V594.124H744.055V625.095H828.575V659.924H706.39V497.238H828.802V532.181ZM927.565 490.318H964.663V659.924H927.452V649.033C918.49 658.449 907.145 663.214 893.417 663.214C877.308 663.214 863.694 657.201 852.576 645.289C841.458 633.377 835.899 618.515 835.899 600.704C835.899 582.892 841.458 568.03 852.576 556.118C863.694 544.206 877.308 538.193 893.417 538.193C907.485 538.193 918.83 542.958 927.565 552.374V490.318ZM900.111 630.2L899.997 630.314C908.279 630.314 915.086 627.591 920.418 622.032C925.75 616.473 928.473 609.326 928.473 600.59C928.473 591.855 925.75 584.821 920.418 579.375C915.086 573.93 908.279 571.207 900.111 571.207C892.056 571.207 885.476 573.93 880.257 579.375C875.039 584.821 872.429 591.855 872.429 600.59C872.429 609.439 875.039 616.586 880.257 622.032C885.476 627.478 892.056 630.2 900.111 630.2ZM1069.21 541.483L1106.42 541.71V655.726C1106.42 672.403 1100.75 686.017 1089.41 696.454C1078.06 706.892 1062.97 712.11 1044.03 712.11C1017.14 712.11 997.967 701.786 986.622 681.139L1018.73 669.567C1024.06 677.849 1032.8 681.933 1044.93 681.933C1052.76 681.933 1058.78 679.55 1062.86 674.786C1066.94 670.021 1068.99 663.668 1068.99 655.84V644.495C1060.25 653.911 1049.36 658.676 1036.2 658.676C1019.52 658.676 1005.68 652.89 994.791 641.318C983.9 629.746 978.454 615.452 978.454 598.321C978.454 580.283 983.9 565.761 994.791 554.757C1005.68 543.752 1019.52 538.193 1036.43 538.193C1049.59 538.193 1060.48 542.958 1069.21 552.374V541.483ZM1042.89 625.549H1042.78C1050.95 625.549 1057.53 623.053 1062.52 618.061C1067.51 613.07 1070.01 606.603 1070.01 598.548C1070.01 590.493 1067.51 584.027 1062.52 579.035C1057.53 574.043 1050.95 571.547 1042.78 571.547C1034.61 571.547 1027.92 574.043 1022.81 579.035C1017.71 584.027 1015.21 590.493 1015.21 598.548C1015.21 606.603 1017.82 613.07 1022.93 618.061C1028.03 623.053 1034.72 625.549 1042.89 625.549ZM1185.33 663.214L1185.22 663.327C1165.82 663.327 1150.17 657.541 1138.14 645.97C1126.11 634.398 1120.1 619.423 1120.1 600.931C1120.1 582.779 1125.89 567.804 1137.46 556.005C1149.03 544.206 1164.12 538.307 1182.84 538.307C1201.9 538.307 1216.99 544.093 1228.1 555.664C1239.22 567.236 1244.78 581.871 1244.78 599.569C1244.78 604.221 1244.44 608.305 1243.87 611.822H1156.29C1159.13 625.435 1169 632.242 1185.9 632.242C1197.25 632.242 1205.19 628.272 1209.61 620.217L1243.08 629.973C1239.34 638.482 1232.42 646.197 1222.21 653.003C1211.99 659.81 1199.74 663.214 1185.33 663.214ZM1156.41 589.586H1208.59C1208.02 584.027 1205.41 579.262 1200.65 575.291C1195.89 571.32 1189.87 569.392 1182.61 569.392C1175.35 569.392 1169.34 571.434 1164.69 575.405C1160.04 579.375 1157.31 584.14 1156.41 589.586Z" fill="#2AC558"/>
</svg>
