<svg width="1504" height="405" viewBox="0 0 1504 405" fill="none" xmlns="http://www.w3.org/2000/svg">
<rect x="184.211" y="92.1045" width="73.683" height="73.6838" fill="#2AC558"/>
<path d="M257.891 73.6839H239.47V73.6625H165.847V152.698H165.787V165.788H92.1036V152.698H92.043V66.3105H92.1026V0H257.891V73.6839Z" fill="white"/>
<path d="M73.683 36.8418H73.6624V184.21H73.683V184.227H147.325V184.27H221.047V184.21H257.888V257.893H140.194V257.889H73.683V257.893H0V0H73.683V36.8418Z" fill="white"/>
<path d="M368.933 173.082H441.698V206.658H332.227V51.8438H368.933V173.082Z" fill="white"/>
<path d="M470.151 80.8849L469.935 80.777C464.322 80.777 459.571 78.8337 455.577 74.9472C451.582 71.0606 449.639 66.3104 449.639 60.6965C449.639 55.1906 451.69 50.5483 455.685 46.7697C459.679 42.9911 464.43 41.0479 470.043 41.0479C475.657 41.0479 480.408 42.9911 484.402 46.8777C488.397 50.7642 490.448 55.4065 490.448 60.8045C490.448 66.4183 488.505 71.1686 484.51 75.0551C480.516 78.9417 475.765 80.8849 470.151 80.8849ZM451.798 206.55V93.8401H487.101V206.55H451.798Z" fill="white"/>
<path d="M576.444 90.8172V91.0331C591.019 91.0331 602.03 95.5674 609.372 104.528C616.713 113.489 620.384 125.688 620.384 141.126V206.766H585.081V148.144C585.081 131.842 578.387 123.637 564.892 123.637C558.091 123.637 552.801 126.12 548.914 131.086C545.028 136.052 543.085 142.854 543.085 151.598V206.658H507.674V93.948H543.085V105.608C551.613 95.7833 562.733 90.8172 576.444 90.8172Z" fill="white"/>
<path d="M694.504 209.789L694.396 209.897C675.935 209.897 661.037 204.391 649.593 193.379C638.149 182.367 632.428 168.116 632.428 150.519C632.428 133.245 637.934 118.995 648.945 107.767C659.957 96.5391 674.316 90.9252 692.129 90.9252C710.266 90.9252 724.625 96.4311 735.205 107.443C745.785 118.455 751.075 132.382 751.075 149.223C751.075 153.65 750.751 157.536 750.211 160.883H666.867C669.566 173.838 678.958 180.316 695.044 180.316C705.84 180.316 713.397 176.537 717.608 168.872L749.456 178.156C745.893 186.253 739.307 193.595 729.591 200.072C719.875 206.55 708.215 209.789 694.504 209.789ZM666.975 139.723H716.636C716.096 134.433 713.613 129.899 709.079 126.12C704.545 122.341 698.823 120.506 691.913 120.506C685.004 120.506 679.282 122.449 674.856 126.228C670.429 130.007 667.838 134.541 666.975 139.723Z" fill="white"/>
<path d="M812.673 209.789H812.565C797.234 209.789 784.279 204.067 773.699 192.731C763.119 181.395 757.829 167.253 757.829 150.303C757.829 133.353 763.119 119.211 773.699 107.875C784.279 96.5391 797.234 90.8172 812.565 90.8172C825.952 90.8172 836.747 95.3515 845.06 104.312V93.948H880.471V206.658H845.06V196.294C836.532 205.254 825.736 209.789 812.673 209.789ZM819.042 178.372L818.934 178.48C826.815 178.48 833.293 175.889 838.367 170.599C843.441 165.309 846.032 158.508 846.032 150.195C846.032 141.882 843.441 135.189 838.367 130.007C833.293 124.824 826.815 122.233 819.042 122.233C811.377 122.233 805.115 124.824 800.149 130.007C795.183 135.189 792.7 141.882 792.7 150.195C792.7 158.616 795.183 165.417 800.149 170.599C805.115 175.781 811.377 178.372 819.042 178.372Z" fill="white"/>
<path d="M900.396 206.658V45.2583H935.807V206.658H900.396Z" fill="white"/>
<path d="M1107.65 85.0954H1027V111.977H1096.42V144.041H1027V173.514H1107.43V206.658H991.16V51.8438H1107.65V85.0954Z" fill="#2AC558"/>
<path d="M1201.63 45.2583H1236.94V206.658H1201.53V196.294C1193 205.254 1182.2 209.789 1169.14 209.789C1153.81 209.789 1140.85 204.067 1130.27 192.731C1119.69 181.395 1114.4 167.253 1114.4 150.303C1114.4 133.353 1119.69 119.211 1130.27 107.875C1140.85 96.5391 1153.81 90.8172 1169.14 90.8172C1182.52 90.8172 1193.32 95.3515 1201.63 104.312V45.2583ZM1175.51 178.372L1175.4 178.48C1183.28 178.48 1189.76 175.889 1194.83 170.599C1199.91 165.309 1202.5 158.508 1202.5 150.195C1202.5 141.882 1199.91 135.189 1194.83 130.007C1189.76 124.824 1183.28 122.233 1175.51 122.233C1167.84 122.233 1161.58 124.824 1156.61 130.007C1151.65 135.189 1149.17 141.882 1149.17 150.195C1149.17 158.616 1151.65 165.417 1156.61 170.599C1161.58 175.781 1167.84 178.372 1175.51 178.372Z" fill="#2AC558"/>
<path d="M1336.43 93.948L1371.84 94.164V202.663C1371.84 218.533 1366.44 231.489 1355.64 241.421C1344.85 251.353 1330.49 256.319 1312.46 256.319C1286.87 256.319 1268.63 246.495 1257.83 226.846L1288.39 215.834C1293.46 223.715 1301.77 227.602 1313.32 227.602C1320.77 227.602 1326.5 225.335 1330.38 220.801C1334.27 216.266 1336.21 210.22 1336.21 202.771V191.975C1327.9 200.936 1317.53 205.47 1305.01 205.47C1289.14 205.47 1275.97 199.964 1265.61 188.952C1255.24 177.941 1250.06 164.338 1250.06 148.036C1250.06 130.87 1255.24 117.051 1265.61 106.579C1275.97 96.1072 1289.14 90.8172 1305.23 90.8172C1317.75 90.8172 1328.11 95.3515 1336.43 104.312V93.948ZM1311.38 173.946H1311.27C1319.05 173.946 1325.31 171.571 1330.06 166.821C1334.81 162.071 1337.18 155.917 1337.18 148.252C1337.18 140.587 1334.81 134.433 1330.06 129.683C1325.31 124.932 1319.05 122.557 1311.27 122.557C1303.5 122.557 1297.13 124.932 1292.27 129.683C1287.41 134.433 1285.04 140.587 1285.04 148.252C1285.04 155.917 1287.52 162.071 1292.38 166.821C1297.24 171.571 1303.61 173.946 1311.38 173.946Z" fill="#2AC558"/>
<path d="M1446.93 209.789L1446.82 209.897C1428.36 209.897 1413.46 204.391 1402.02 193.379C1390.58 182.367 1384.85 168.116 1384.85 150.519C1384.85 133.245 1390.36 118.995 1401.37 107.767C1412.38 96.5391 1426.74 90.9252 1444.56 90.9252C1462.69 90.9252 1477.05 96.4311 1487.63 107.443C1498.21 118.455 1503.5 132.382 1503.5 149.223C1503.5 153.65 1503.18 157.536 1502.64 160.883H1419.29C1421.99 173.838 1431.38 180.316 1447.47 180.316C1458.27 180.316 1465.82 176.537 1470.03 168.872L1501.88 178.156C1498.32 186.253 1491.73 193.595 1482.02 200.072C1472.3 206.55 1460.64 209.789 1446.93 209.789ZM1419.4 139.723H1469.06C1468.52 134.433 1466.04 129.899 1461.51 126.12C1456.97 122.341 1451.25 120.506 1444.34 120.506C1437.43 120.506 1431.71 122.449 1427.28 126.228C1422.86 130.007 1420.26 134.541 1419.4 139.723Z" fill="#2AC558"/>
<line x1="0.00390614" y1="293.169" x2="1503.5" y2="293.169" stroke="white" stroke-width="2.43285"/>
<path d="M9.15964 388.095H1.98949L22.7278 331.616H29.7876L50.5259 388.095H43.3557L26.4783 340.551H26.0371L9.15964 388.095ZM11.8071 366.033H40.7083V372.1H11.8071V366.033ZM59.3231 331.616H67.4861L86.68 378.498H87.3419L106.536 331.616H114.699V388.095H108.301V345.184H107.749L90.0996 388.095H83.9223L66.2727 345.184H65.7211V388.095H59.3231V331.616ZM128.412 388.095V331.616H162.277V337.683H135.251V356.767H159.74V362.834H135.251V388.095H128.412ZM180.83 331.616V388.095H173.99V331.616H180.83ZM217.928 356.822V362.889H193.219V356.822H217.928ZM230.262 388.095V331.616H249.346C253.758 331.616 257.38 332.37 260.211 333.877C263.043 335.367 265.139 337.416 266.499 340.027C267.86 342.638 268.54 345.607 268.54 348.935C268.54 352.262 267.86 355.213 266.499 357.787C265.139 360.361 263.052 362.383 260.239 363.854C257.426 365.307 253.832 366.033 249.456 366.033H234.013V359.855H249.236C252.251 359.855 254.678 359.414 256.516 358.532C258.373 357.649 259.715 356.399 260.542 354.781C261.388 353.145 261.811 351.196 261.811 348.935C261.811 346.673 261.388 344.697 260.542 343.006C259.697 341.314 258.345 340.009 256.488 339.089C254.632 338.152 252.177 337.683 249.125 337.683H237.102V388.095H230.262ZM256.847 362.723L270.746 388.095H262.804L249.125 362.723H256.847ZM296.359 388.977C292.277 388.977 288.756 388.076 285.796 386.275C282.855 384.454 280.584 381.917 278.985 378.663C277.404 375.391 276.613 371.585 276.613 367.246C276.613 362.907 277.404 359.083 278.985 355.774C280.584 352.446 282.809 349.854 285.659 347.997C288.527 346.122 291.873 345.184 295.697 345.184C297.903 345.184 300.082 345.552 302.233 346.287C304.384 347.023 306.342 348.218 308.107 349.872C309.872 351.509 311.278 353.678 312.326 356.381C313.374 359.083 313.898 362.411 313.898 366.364V369.121H281.246V363.496H307.279C307.279 361.106 306.801 358.973 305.845 357.098C304.908 355.222 303.566 353.742 301.819 352.658C300.091 351.573 298.05 351.031 295.697 351.031C293.105 351.031 290.862 351.674 288.968 352.961C287.093 354.23 285.649 355.884 284.638 357.925C283.627 359.966 283.121 362.153 283.121 364.488V368.239C283.121 371.438 283.673 374.15 284.776 376.374C285.898 378.58 287.451 380.263 289.437 381.421C291.422 382.561 293.73 383.131 296.359 383.131C298.068 383.131 299.613 382.892 300.992 382.414C302.389 381.917 303.593 381.182 304.604 380.208C305.616 379.215 306.397 377.983 306.948 376.512L313.236 378.277C312.574 380.41 311.462 382.285 309.899 383.903C308.337 385.502 306.406 386.753 304.108 387.653C301.81 388.536 299.227 388.977 296.359 388.977ZM340.896 404.862C337.753 404.862 335.05 404.457 332.789 403.648C330.527 402.858 328.643 401.81 327.135 400.505C325.646 399.218 324.46 397.839 323.578 396.368L328.762 392.728C329.351 393.5 330.095 394.382 330.996 395.375C331.897 396.386 333.129 397.26 334.691 397.995C336.273 398.749 338.341 399.126 340.896 399.126C344.316 399.126 347.138 398.298 349.363 396.644C351.587 394.989 352.7 392.397 352.7 388.867V380.263H352.148C351.67 381.035 350.99 381.991 350.107 383.131C349.243 384.252 347.993 385.254 346.357 386.137C344.739 387.001 342.551 387.433 339.793 387.433C336.374 387.433 333.303 386.624 330.582 385.006C327.88 383.388 325.738 381.035 324.157 377.946C322.594 374.858 321.813 371.107 321.813 366.695C321.813 362.356 322.576 358.578 324.102 355.36C325.628 352.124 327.751 349.624 330.472 347.859C333.193 346.076 336.337 345.184 339.904 345.184C342.661 345.184 344.849 345.644 346.467 346.563C348.103 347.464 349.353 348.493 350.218 349.652C351.1 350.792 351.78 351.729 352.258 352.465H352.92V345.736H359.208V389.308C359.208 392.948 358.38 395.908 356.726 398.188C355.09 400.486 352.883 402.168 350.107 403.235C347.349 404.319 344.279 404.862 340.896 404.862ZM340.676 381.586C343.286 381.586 345.493 380.989 347.294 379.794C349.096 378.599 350.466 376.88 351.403 374.637C352.341 372.394 352.81 369.71 352.81 366.584C352.81 363.532 352.35 360.839 351.431 358.504C350.512 356.169 349.151 354.34 347.349 353.016C345.548 351.692 343.323 351.031 340.676 351.031C337.918 351.031 335.62 351.729 333.781 353.126C331.961 354.524 330.592 356.399 329.672 358.752C328.771 361.106 328.321 363.716 328.321 366.584C328.321 369.526 328.781 372.127 329.7 374.389C330.638 376.632 332.016 378.397 333.837 379.684C335.675 380.952 337.955 381.586 340.676 381.586ZM371.121 388.095V345.736H377.63V388.095H371.121ZM374.431 338.676C373.162 338.676 372.068 338.244 371.149 337.38C370.248 336.516 369.798 335.477 369.798 334.263C369.798 333.05 370.248 332.011 371.149 331.147C372.068 330.283 373.162 329.851 374.431 329.851C375.699 329.851 376.784 330.283 377.685 331.147C378.604 332.011 379.064 333.05 379.064 334.263C379.064 335.477 378.604 336.516 377.685 337.38C376.784 338.244 375.699 338.676 374.431 338.676ZM419.554 355.222L413.708 356.877C413.34 355.903 412.798 354.956 412.081 354.037C411.382 353.099 410.426 352.327 409.213 351.72C407.999 351.113 406.446 350.81 404.552 350.81C401.96 350.81 399.8 351.407 398.071 352.602C396.362 353.779 395.507 355.277 395.507 357.098C395.507 358.715 396.095 359.993 397.272 360.931C398.448 361.869 400.287 362.65 402.787 363.275L409.075 364.819C412.862 365.739 415.684 367.145 417.541 369.039C419.398 370.914 420.326 373.332 420.326 376.292C420.326 378.718 419.628 380.888 418.231 382.8C416.852 384.712 414.921 386.219 412.439 387.323C409.957 388.426 407.071 388.977 403.78 388.977C399.459 388.977 395.884 388.04 393.052 386.164C390.221 384.289 388.428 381.55 387.675 377.946L393.852 376.402C394.44 378.682 395.553 380.391 397.189 381.531C398.844 382.671 401.004 383.241 403.67 383.241C406.703 383.241 409.112 382.598 410.895 381.311C412.697 380.005 413.598 378.443 413.598 376.622C413.598 375.152 413.083 373.92 412.053 372.927C411.024 371.916 409.443 371.162 407.31 370.666L400.25 369.011C396.371 368.092 393.521 366.667 391.701 364.737C389.899 362.788 388.998 360.352 388.998 357.429C388.998 355.038 389.669 352.924 391.012 351.086C392.372 349.247 394.22 347.804 396.555 346.756C398.908 345.708 401.574 345.184 404.552 345.184C408.744 345.184 412.035 346.103 414.425 347.942C416.833 349.78 418.543 352.207 419.554 355.222ZM448.545 345.736V351.251H426.593V345.736H448.545ZM432.991 335.587H439.5V375.961C439.5 377.799 439.766 379.178 440.299 380.097C440.851 380.998 441.55 381.605 442.395 381.917C443.259 382.212 444.17 382.359 445.126 382.359C445.843 382.359 446.431 382.322 446.89 382.248C447.35 382.156 447.718 382.083 447.994 382.028L449.317 387.874C448.876 388.04 448.26 388.205 447.47 388.371C446.679 388.554 445.677 388.646 444.464 388.646C442.625 388.646 440.823 388.251 439.058 387.46C437.312 386.67 435.859 385.466 434.701 383.848C433.561 382.23 432.991 380.189 432.991 377.726V335.587ZM475.64 388.977C471.559 388.977 468.038 388.076 465.078 386.275C462.136 384.454 459.866 381.917 458.266 378.663C456.685 375.391 455.895 371.585 455.895 367.246C455.895 362.907 456.685 359.083 458.266 355.774C459.866 352.446 462.09 349.854 464.94 347.997C467.808 346.122 471.154 345.184 474.978 345.184C477.184 345.184 479.363 345.552 481.514 346.287C483.665 347.023 485.623 348.218 487.388 349.872C489.153 351.509 490.559 353.678 491.607 356.381C492.655 359.083 493.179 362.411 493.179 366.364V369.121H460.528V363.496H486.561C486.561 361.106 486.083 358.973 485.127 357.098C484.189 355.222 482.847 353.742 481.1 352.658C479.372 351.573 477.331 351.031 474.978 351.031C472.386 351.031 470.143 351.674 468.249 352.961C466.374 354.23 464.931 355.884 463.92 357.925C462.908 359.966 462.403 362.153 462.403 364.488V368.239C462.403 371.438 462.954 374.15 464.058 376.374C465.179 378.58 466.733 380.263 468.718 381.421C470.704 382.561 473.011 383.131 475.64 383.131C477.35 383.131 478.894 382.892 480.273 382.414C481.67 381.917 482.875 381.182 483.886 380.208C484.897 379.215 485.678 377.983 486.23 376.512L492.517 378.277C491.856 380.41 490.743 382.285 489.181 383.903C487.618 385.502 485.687 386.753 483.389 387.653C481.091 388.536 478.508 388.977 475.64 388.977ZM503.08 388.095V345.736H509.367V352.134H509.809C510.581 350.038 511.978 348.337 514 347.032C516.023 345.726 518.302 345.074 520.84 345.074C521.318 345.074 521.915 345.083 522.632 345.101C523.349 345.12 523.891 345.147 524.259 345.184V351.803C524.039 351.748 523.533 351.665 522.742 351.555C521.97 351.426 521.152 351.361 520.288 351.361C518.229 351.361 516.39 351.794 514.773 352.658C513.173 353.503 511.904 354.68 510.967 356.188C510.048 357.677 509.588 359.377 509.588 361.289V388.095H503.08ZM548.445 388.977C544.363 388.977 540.842 388.076 537.882 386.275C534.941 384.454 532.67 381.917 531.071 378.663C529.49 375.391 528.699 371.585 528.699 367.246C528.699 362.907 529.49 359.083 531.071 355.774C532.67 352.446 534.895 349.854 537.745 347.997C540.613 346.122 543.959 345.184 547.783 345.184C549.989 345.184 552.168 345.552 554.319 346.287C556.47 347.023 558.428 348.218 560.193 349.872C561.958 351.509 563.364 353.678 564.412 356.381C565.46 359.083 565.984 362.411 565.984 366.364V369.121H533.332V363.496H559.365C559.365 361.106 558.887 358.973 557.931 357.098C556.994 355.222 555.652 353.742 553.905 352.658C552.177 351.573 550.136 351.031 547.783 351.031C545.191 351.031 542.948 351.674 541.054 352.961C539.179 354.23 537.735 355.884 536.724 357.925C535.713 359.966 535.207 362.153 535.207 364.488V368.239C535.207 371.438 535.759 374.15 536.862 376.374C537.984 378.58 539.537 380.263 541.523 381.421C543.508 382.561 545.816 383.131 548.445 383.131C550.154 383.131 551.699 382.892 553.078 382.414C554.475 381.917 555.679 381.182 556.69 380.208C557.702 379.215 558.483 377.983 559.034 376.512L565.322 378.277C564.66 380.41 563.548 382.285 561.985 383.903C560.423 385.502 558.492 386.753 556.194 387.653C553.896 388.536 551.313 388.977 548.445 388.977ZM591.879 388.977C588.349 388.977 585.233 388.086 582.53 386.302C579.828 384.5 577.714 381.963 576.188 378.691C574.662 375.4 573.899 371.511 573.899 367.026C573.899 362.576 574.662 358.715 576.188 355.443C577.714 352.17 579.837 349.642 582.558 347.859C585.279 346.076 588.423 345.184 591.99 345.184C594.747 345.184 596.926 345.644 598.525 346.563C600.143 347.464 601.375 348.493 602.221 349.652C603.085 350.792 603.756 351.729 604.234 352.465H604.786V331.616H611.294V388.095H605.006V381.586H604.234C603.756 382.359 603.076 383.333 602.193 384.51C601.311 385.668 600.051 386.707 598.415 387.626C596.779 388.527 594.6 388.977 591.879 388.977ZM592.762 383.131C595.372 383.131 597.579 382.451 599.38 381.09C601.182 379.711 602.552 377.808 603.489 375.381C604.427 372.936 604.896 370.114 604.896 366.915C604.896 363.753 604.436 360.986 603.517 358.614C602.598 356.224 601.237 354.367 599.435 353.044C597.634 351.702 595.409 351.031 592.762 351.031C590.004 351.031 587.706 351.738 585.867 353.154C584.047 354.551 582.678 356.454 581.758 358.863C580.857 361.253 580.407 363.937 580.407 366.915C580.407 369.93 580.867 372.67 581.786 375.133C582.724 377.579 584.102 379.527 585.923 380.98C587.761 382.414 590.041 383.131 592.762 383.131ZM646.841 331.616H655.004L674.198 378.498H674.86L694.054 331.616H702.217V388.095H695.819V345.184H695.267L677.618 388.095H671.44L653.791 345.184H653.239V388.095H646.841V331.616ZM741.742 370.776V345.736H748.251V388.095H741.742V380.925H741.301C740.308 383.076 738.764 384.905 736.668 386.412C734.572 387.902 731.925 388.646 728.726 388.646C726.078 388.646 723.725 388.067 721.666 386.909C719.607 385.732 717.989 383.967 716.812 381.614C715.636 379.242 715.047 376.255 715.047 372.651V345.736H721.556V372.21C721.556 375.299 722.42 377.762 724.148 379.601C725.894 381.439 728.119 382.359 730.822 382.359C732.439 382.359 734.085 381.945 735.758 381.118C737.449 380.29 738.865 379.022 740.005 377.312C741.163 375.602 741.742 373.423 741.742 370.776ZM778.593 345.736V351.251H756.641V345.736H778.593ZM763.039 335.587H769.547V375.961C769.547 377.799 769.814 379.178 770.347 380.097C770.899 380.998 771.597 381.605 772.443 381.917C773.307 382.212 774.217 382.359 775.173 382.359C775.89 382.359 776.478 382.322 776.938 382.248C777.398 382.156 777.765 382.083 778.041 382.028L779.365 387.874C778.924 388.04 778.308 388.205 777.517 388.371C776.727 388.554 775.725 388.646 774.511 388.646C772.673 388.646 770.871 388.251 769.106 387.46C767.36 386.67 765.907 385.466 764.749 383.848C763.609 382.23 763.039 380.189 763.039 377.726V335.587ZM815.078 370.776V345.736H821.586V388.095H815.078V380.925H814.637C813.644 383.076 812.099 384.905 810.004 386.412C807.908 387.902 805.26 388.646 802.061 388.646C799.414 388.646 797.06 388.067 795.001 386.909C792.942 385.732 791.324 383.967 790.148 381.614C788.971 379.242 788.383 376.255 788.383 372.651V345.736H794.891V372.21C794.891 375.299 795.755 377.762 797.483 379.601C799.23 381.439 801.455 382.359 804.157 382.359C805.775 382.359 807.42 381.945 809.093 381.118C810.785 380.29 812.201 379.022 813.34 377.312C814.499 375.602 815.078 373.423 815.078 370.776ZM845.971 389.088C843.287 389.088 840.851 388.582 838.663 387.571C836.476 386.541 834.738 385.061 833.451 383.131C832.164 381.182 831.521 378.829 831.521 376.071C831.521 373.644 831.999 371.677 832.955 370.169C833.911 368.643 835.189 367.448 836.788 366.584C838.388 365.72 840.153 365.077 842.083 364.654C844.032 364.213 845.99 363.863 847.957 363.606C850.531 363.275 852.618 363.027 854.217 362.861C855.835 362.677 857.012 362.374 857.747 361.951C858.501 361.528 858.878 360.793 858.878 359.745V359.524C858.878 356.803 858.133 354.689 856.644 353.182C855.173 351.674 852.939 350.92 849.943 350.92C846.836 350.92 844.4 351.6 842.635 352.961C840.87 354.321 839.629 355.774 838.912 357.318L832.734 355.112C833.837 352.538 835.308 350.534 837.147 349.1C839.004 347.648 841.026 346.637 843.214 346.067C845.42 345.478 847.589 345.184 849.722 345.184C851.082 345.184 852.645 345.35 854.41 345.681C856.194 345.993 857.913 346.646 859.567 347.639C861.24 348.631 862.628 350.13 863.731 352.134C864.834 354.138 865.386 356.822 865.386 360.186V388.095H858.878V382.359H858.547C858.106 383.278 857.37 384.261 856.341 385.309C855.311 386.357 853.941 387.249 852.232 387.984C850.522 388.72 848.435 389.088 845.971 389.088ZM846.964 383.241C849.538 383.241 851.708 382.735 853.473 381.724C855.256 380.713 856.598 379.408 857.499 377.808C858.418 376.209 858.878 374.527 858.878 372.762V366.805C858.602 367.136 857.995 367.439 857.058 367.715C856.138 367.972 855.072 368.202 853.859 368.404C852.664 368.588 851.496 368.754 850.356 368.901C849.235 369.029 848.325 369.14 847.626 369.232C845.935 369.452 844.354 369.811 842.883 370.307C841.43 370.785 840.254 371.511 839.353 372.486C838.47 373.442 838.029 374.747 838.029 376.402C838.029 378.663 838.866 380.373 840.539 381.531C842.23 382.671 844.372 383.241 846.964 383.241ZM883.773 331.616V388.095H877.265V331.616H883.773ZM918.418 388.095V331.616H952.283V337.683H925.257V356.767H949.746V362.834H925.257V388.095H918.418ZM987.155 370.776V345.736H993.663V388.095H987.155V380.925H986.713C985.72 383.076 984.176 384.905 982.08 386.412C979.984 387.902 977.337 388.646 974.138 388.646C971.49 388.646 969.137 388.067 967.078 386.909C965.019 385.732 963.401 383.967 962.224 381.614C961.048 379.242 960.459 376.255 960.459 372.651V345.736H966.968V372.21C966.968 375.299 967.832 377.762 969.56 379.601C971.307 381.439 973.531 382.359 976.234 382.359C977.852 382.359 979.497 381.945 981.17 381.118C982.862 380.29 984.277 379.022 985.417 377.312C986.575 375.602 987.155 373.423 987.155 370.776ZM1012.09 362.613V388.095H1005.58V345.736H1011.87V352.354H1012.42C1013.42 350.203 1014.92 348.475 1016.95 347.17C1018.97 345.846 1021.58 345.184 1024.78 345.184C1027.65 345.184 1030.15 345.772 1032.31 346.949C1034.46 348.107 1036.13 349.872 1037.32 352.244C1038.52 354.597 1039.12 357.576 1039.12 361.179V388.095H1032.61V361.62C1032.61 358.293 1031.75 355.7 1030.02 353.843C1028.29 351.968 1025.92 351.031 1022.9 351.031C1020.82 351.031 1018.97 351.481 1017.33 352.382C1015.71 353.283 1014.44 354.597 1013.5 356.325C1012.56 358.054 1012.09 360.15 1012.09 362.613ZM1067.01 388.977C1063.48 388.977 1060.36 388.086 1057.66 386.302C1054.95 384.5 1052.84 381.963 1051.31 378.691C1049.79 375.4 1049.02 371.511 1049.02 367.026C1049.02 362.576 1049.79 358.715 1051.31 355.443C1052.84 352.17 1054.96 349.642 1057.68 347.859C1060.4 346.076 1063.55 345.184 1067.12 345.184C1069.87 345.184 1072.05 345.644 1073.65 346.563C1075.27 347.464 1076.5 348.493 1077.35 349.652C1078.21 350.792 1078.88 351.729 1079.36 352.465H1079.91V331.616H1086.42V388.095H1080.13V381.586H1079.36C1078.88 382.359 1078.2 383.333 1077.32 384.51C1076.44 385.668 1075.18 386.707 1073.54 387.626C1071.9 388.527 1069.73 388.977 1067.01 388.977ZM1067.89 383.131C1070.5 383.131 1072.7 382.451 1074.51 381.09C1076.31 379.711 1077.68 377.808 1078.62 375.381C1079.55 372.936 1080.02 370.114 1080.02 366.915C1080.02 363.753 1079.56 360.986 1078.64 358.614C1077.72 356.224 1076.36 354.367 1074.56 353.044C1072.76 351.702 1070.54 351.031 1067.89 351.031C1065.13 351.031 1062.83 351.738 1060.99 353.154C1059.17 354.551 1057.8 356.454 1056.88 358.863C1055.98 361.253 1055.53 363.937 1055.53 366.915C1055.53 369.93 1055.99 372.67 1056.91 375.133C1057.85 377.579 1059.23 379.527 1061.05 380.98C1062.89 382.414 1065.17 383.131 1067.89 383.131ZM1139.4 388.095H1121.97V331.616H1140.17C1145.65 331.616 1150.34 332.747 1154.23 335.008C1158.13 337.251 1161.12 340.478 1163.2 344.688C1165.27 348.88 1166.31 353.899 1166.31 359.745C1166.31 365.628 1165.26 370.693 1163.17 374.94C1161.07 379.169 1158.02 382.423 1154.01 384.703C1150 386.964 1145.13 388.095 1139.4 388.095ZM1128.81 382.028H1138.95C1143.62 382.028 1147.49 381.127 1150.57 379.325C1153.64 377.523 1155.92 374.959 1157.43 371.631C1158.94 368.303 1159.69 364.341 1159.69 359.745C1159.69 355.186 1158.95 351.26 1157.46 347.969C1155.97 344.66 1153.75 342.123 1150.79 340.358C1147.83 338.575 1144.14 337.683 1139.73 337.683H1128.81V382.028ZM1176.9 388.095V345.736H1183.41V388.095H1176.9ZM1180.21 338.676C1178.94 338.676 1177.85 338.244 1176.93 337.38C1176.03 336.516 1175.58 335.477 1175.58 334.263C1175.58 333.05 1176.03 332.011 1176.93 331.147C1177.85 330.283 1178.94 329.851 1180.21 329.851C1181.48 329.851 1182.56 330.283 1183.47 331.147C1184.38 332.011 1184.84 333.05 1184.84 334.263C1184.84 335.477 1184.38 336.516 1183.47 337.38C1182.56 338.244 1181.48 338.676 1180.21 338.676ZM1225.33 355.222L1219.49 356.877C1219.12 355.903 1218.58 354.956 1217.86 354.037C1217.16 353.099 1216.21 352.327 1214.99 351.72C1213.78 351.113 1212.23 350.81 1210.33 350.81C1207.74 350.81 1205.58 351.407 1203.85 352.602C1202.14 353.779 1201.29 355.277 1201.29 357.098C1201.29 358.715 1201.88 359.993 1203.05 360.931C1204.23 361.869 1206.07 362.65 1208.57 363.275L1214.86 364.819C1218.64 365.739 1221.46 367.145 1223.32 369.039C1225.18 370.914 1226.11 373.332 1226.11 376.292C1226.11 378.718 1225.41 380.888 1224.01 382.8C1222.63 384.712 1220.7 386.219 1218.22 387.323C1215.74 388.426 1212.85 388.977 1209.56 388.977C1205.24 388.977 1201.66 388.04 1198.83 386.164C1196 384.289 1194.21 381.55 1193.46 377.946L1199.63 376.402C1200.22 378.682 1201.33 380.391 1202.97 381.531C1204.62 382.671 1206.78 383.241 1209.45 383.241C1212.48 383.241 1214.89 382.598 1216.68 381.311C1218.48 380.005 1219.38 378.443 1219.38 376.622C1219.38 375.152 1218.86 373.92 1217.83 372.927C1216.8 371.916 1215.22 371.162 1213.09 370.666L1206.03 369.011C1202.15 368.092 1199.3 366.667 1197.48 364.737C1195.68 362.788 1194.78 360.352 1194.78 357.429C1194.78 355.038 1195.45 352.924 1196.79 351.086C1198.15 349.247 1200 347.804 1202.33 346.756C1204.69 345.708 1207.35 345.184 1210.33 345.184C1214.52 345.184 1217.82 346.103 1220.21 347.942C1222.61 349.78 1224.32 352.207 1225.33 355.222ZM1254.33 345.736V351.251H1232.37V345.736H1254.33ZM1238.77 335.587H1245.28V375.961C1245.28 377.799 1245.55 379.178 1246.08 380.097C1246.63 380.998 1247.33 381.605 1248.18 381.917C1249.04 382.212 1249.95 382.359 1250.91 382.359C1251.62 382.359 1252.21 382.322 1252.67 382.248C1253.13 382.156 1253.5 382.083 1253.77 382.028L1255.1 387.874C1254.66 388.04 1254.04 388.205 1253.25 388.371C1252.46 388.554 1251.46 388.646 1250.24 388.646C1248.41 388.646 1246.6 388.251 1244.84 387.46C1243.09 386.67 1241.64 385.466 1240.48 383.848C1239.34 382.23 1238.77 380.189 1238.77 377.726V335.587ZM1264.12 388.095V345.736H1270.4V352.134H1270.84C1271.62 350.038 1273.01 348.337 1275.04 347.032C1277.06 345.726 1279.34 345.074 1281.88 345.074C1282.35 345.074 1282.95 345.083 1283.67 345.101C1284.38 345.12 1284.93 345.147 1285.29 345.184V351.803C1285.07 351.748 1284.57 351.665 1283.78 351.555C1283.01 351.426 1282.19 351.361 1281.32 351.361C1279.26 351.361 1277.43 351.794 1275.81 352.658C1274.21 353.503 1272.94 354.68 1272 356.188C1271.08 357.677 1270.62 359.377 1270.62 361.289V388.095H1264.12ZM1293.01 388.095V345.736H1299.52V388.095H1293.01ZM1296.32 338.676C1295.05 338.676 1293.96 338.244 1293.04 337.38C1292.14 336.516 1291.69 335.477 1291.69 334.263C1291.69 333.05 1292.14 332.011 1293.04 331.147C1293.96 330.283 1295.05 329.851 1296.32 329.851C1297.59 329.851 1298.67 330.283 1299.57 331.147C1300.49 332.011 1300.95 333.05 1300.95 334.263C1300.95 335.477 1300.49 336.516 1299.57 337.38C1298.67 338.244 1297.59 338.676 1296.32 338.676ZM1312.32 388.095V331.616H1318.83V352.465H1319.38C1319.86 351.729 1320.52 350.792 1321.37 349.652C1322.23 348.493 1323.46 347.464 1325.06 346.563C1326.68 345.644 1328.87 345.184 1331.63 345.184C1335.19 345.184 1338.34 346.076 1341.06 347.859C1343.78 349.642 1345.9 352.17 1347.43 355.443C1348.95 358.715 1349.72 362.576 1349.72 367.026C1349.72 371.511 1348.95 375.4 1347.43 378.691C1345.9 381.963 1343.79 384.5 1341.08 386.302C1338.38 388.086 1335.27 388.977 1331.74 388.977C1329.01 388.977 1326.84 388.527 1325.2 387.626C1323.56 386.707 1322.3 385.668 1321.42 384.51C1320.54 383.333 1319.86 382.359 1319.38 381.586H1318.61V388.095H1312.32ZM1318.72 366.915C1318.72 370.114 1319.19 372.936 1320.13 375.381C1321.06 377.808 1322.43 379.711 1324.23 381.09C1326.04 382.451 1328.24 383.131 1330.85 383.131C1333.57 383.131 1335.84 382.414 1337.66 380.98C1339.5 379.527 1340.88 377.579 1341.8 375.133C1342.74 372.67 1343.21 369.93 1343.21 366.915C1343.21 363.937 1342.75 361.253 1341.83 358.863C1340.93 356.454 1339.56 354.551 1337.72 353.154C1335.9 351.738 1333.61 351.031 1330.85 351.031C1328.21 351.031 1325.98 351.702 1324.18 353.044C1322.38 354.367 1321.02 356.224 1320.1 358.614C1319.18 360.986 1318.72 363.753 1318.72 366.915ZM1386.37 370.776V345.736H1392.87V388.095H1386.37V380.925H1385.93C1384.93 383.076 1383.39 384.905 1381.29 386.412C1379.2 387.902 1376.55 388.646 1373.35 388.646C1370.7 388.646 1368.35 388.067 1366.29 386.909C1364.23 385.732 1362.61 383.967 1361.44 381.614C1360.26 379.242 1359.67 376.255 1359.67 372.651V345.736H1366.18V372.21C1366.18 375.299 1367.04 377.762 1368.77 379.601C1370.52 381.439 1372.74 382.359 1375.45 382.359C1377.06 382.359 1378.71 381.945 1380.38 381.118C1382.07 380.29 1383.49 379.022 1384.63 377.312C1385.79 375.602 1386.37 373.423 1386.37 370.776ZM1423.22 345.736V351.251H1401.27V345.736H1423.22ZM1407.66 335.587H1414.17V375.961C1414.17 377.799 1414.44 379.178 1414.97 380.097C1415.52 380.998 1416.22 381.605 1417.07 381.917C1417.93 382.212 1418.84 382.359 1419.8 382.359C1420.51 382.359 1421.1 382.322 1421.56 382.248C1422.02 382.156 1422.39 382.083 1422.67 382.028L1423.99 387.874C1423.55 388.04 1422.93 388.205 1422.14 388.371C1421.35 388.554 1420.35 388.646 1419.14 388.646C1417.3 388.646 1415.5 388.251 1413.73 387.46C1411.98 386.67 1410.53 385.466 1409.37 383.848C1408.23 382.23 1407.66 380.189 1407.66 377.726V335.587ZM1449.76 388.977C1445.94 388.977 1442.58 388.067 1439.69 386.247C1436.83 384.427 1434.58 381.881 1432.97 378.608C1431.37 375.336 1430.57 371.511 1430.57 367.136C1430.57 362.723 1431.37 358.872 1432.97 355.581C1434.58 352.29 1436.83 349.734 1439.69 347.914C1442.58 346.094 1445.94 345.184 1449.76 345.184C1453.58 345.184 1456.93 346.094 1459.8 347.914C1462.68 349.734 1464.93 352.29 1466.53 355.581C1468.15 358.872 1468.95 362.723 1468.95 367.136C1468.95 371.511 1468.15 375.336 1466.53 378.608C1464.93 381.881 1462.68 384.427 1459.8 386.247C1456.93 388.067 1453.58 388.977 1449.76 388.977ZM1449.76 383.131C1452.67 383.131 1455.06 382.386 1456.93 380.897C1458.81 379.408 1460.19 377.45 1461.09 375.023C1462 372.596 1462.45 369.967 1462.45 367.136C1462.45 364.305 1462 361.666 1461.09 359.221C1460.19 356.776 1458.81 354.799 1456.93 353.292C1455.06 351.784 1452.67 351.031 1449.76 351.031C1446.86 351.031 1444.47 351.784 1442.59 353.292C1440.71 354.799 1439.33 356.776 1438.43 359.221C1437.53 361.666 1437.07 364.305 1437.07 367.136C1437.07 369.967 1437.53 372.596 1438.43 375.023C1439.33 377.45 1440.71 379.408 1442.59 380.897C1444.47 382.386 1446.86 383.131 1449.76 383.131ZM1478.89 388.095V345.736H1485.18V352.134H1485.62C1486.39 350.038 1487.79 348.337 1489.81 347.032C1491.83 345.726 1494.11 345.074 1496.65 345.074C1497.13 345.074 1497.72 345.083 1498.44 345.101C1499.16 345.12 1499.7 345.147 1500.07 345.184V351.803C1499.85 351.748 1499.34 351.665 1498.55 351.555C1497.78 351.426 1496.96 351.361 1496.1 351.361C1494.04 351.361 1492.2 351.794 1490.58 352.658C1488.98 353.503 1487.71 354.68 1486.78 356.188C1485.86 357.677 1485.4 359.377 1485.4 361.289V388.095H1478.89Z" fill="white"/>
</svg>
