<svg width="1588" height="271" viewBox="0 0 1588 271" fill="none" xmlns="http://www.w3.org/2000/svg">
<rect x="193.574" y="96.7856" width="77.4277" height="77.4286" fill="#2AC558"/>
<path d="M270.996 77.4287H251.639V77.4062H174.274V160.458H174.21V174.214H96.7825V160.458H96.7188V69.6805H96.7814V0H270.996V77.4287Z" fill="#071F45"/>
<path d="M77.4277 38.7142H77.4061V193.572H77.4277V193.59H154.812V193.635H232.281V193.572H270.995V271H147.318V270.996H77.4277V271H0V0H77.4277V38.7142Z" fill="#071F45"/>
<path d="M387.691 181.641H464.155V216.924H349.118V54.2384H387.691V181.641ZM494.056 84.7561L493.829 84.6427C487.93 84.6427 482.938 82.6006 478.74 78.5164C474.543 74.4323 472.501 69.4405 472.501 63.5412C472.501 57.7553 474.656 52.877 478.854 48.9063C483.051 44.9356 488.043 42.8936 493.942 42.8936C499.842 42.8936 504.833 44.9356 509.031 49.0198C513.229 53.1039 515.384 57.9822 515.384 63.6547C515.384 69.554 513.342 74.5457 509.144 78.6299C504.947 82.714 499.955 84.7561 494.056 84.7561ZM474.769 216.81V98.37H511.867V216.81H474.769ZM605.753 95.1934V95.4203C621.068 95.4203 632.64 100.185 640.355 109.601C648.069 119.018 651.926 131.837 651.926 148.06V217.037H614.829V155.435C614.829 138.304 607.795 129.682 593.614 129.682C586.467 129.682 580.908 132.291 576.823 137.51C572.739 142.728 570.697 149.876 570.697 159.065V216.924H533.486V98.4834H570.697V110.736C579.66 100.412 591.345 95.1934 605.753 95.1934ZM729.816 220.214L729.702 220.327C710.303 220.327 694.647 214.541 682.621 202.97C670.596 191.398 664.583 176.423 664.583 157.931C664.583 139.779 670.369 124.804 681.94 113.005C693.512 101.206 708.601 95.3068 727.32 95.3068C746.379 95.3068 761.468 101.093 772.586 112.664C783.704 124.236 789.263 138.871 789.263 156.569C789.263 161.221 788.922 165.305 788.355 168.822H700.773C703.609 182.435 713.479 189.242 730.383 189.242C741.728 189.242 749.669 185.272 754.094 177.217L787.561 186.973C783.817 195.482 776.897 203.197 766.687 210.003C756.476 216.81 744.224 220.214 729.816 220.214ZM700.886 146.586H753.073C752.505 141.027 749.896 136.262 745.131 132.291C740.366 128.32 734.354 126.392 727.093 126.392C719.832 126.392 713.819 128.434 709.168 132.405C704.517 136.375 701.794 141.14 700.886 146.586ZM853.992 220.214H853.879C837.769 220.214 824.155 214.201 813.037 202.289C801.919 190.377 796.36 175.515 796.36 157.704C796.36 139.892 801.919 125.03 813.037 113.118C824.155 101.206 837.769 95.1934 853.879 95.1934C867.946 95.1934 879.291 99.9582 888.027 109.374V98.4834H925.238V216.924H888.027V206.033C879.064 215.449 867.719 220.214 853.992 220.214ZM860.686 187.2L860.572 187.314C868.854 187.314 875.661 184.591 880.993 179.032C886.325 173.473 889.048 166.326 889.048 157.59C889.048 148.855 886.325 141.821 880.993 136.375C875.661 130.93 868.854 128.207 860.686 128.207C852.631 128.207 846.051 130.93 840.832 136.375C835.613 141.821 833.004 148.855 833.004 157.59C833.004 166.439 835.613 173.586 840.832 179.032C846.051 184.478 852.631 187.2 860.686 187.2ZM946.176 216.924V47.3181H983.387V216.924H946.176Z" fill="#071F45"/>
<path d="M1163.97 89.1806H1079.22V117.429H1152.17V151.124H1079.22V182.095H1163.74V216.924H1041.55V54.2384H1163.97V89.1806ZM1262.73 47.3181H1299.83V216.924H1262.62V206.033C1253.65 215.449 1242.31 220.214 1228.58 220.214C1212.47 220.214 1198.86 214.201 1187.74 202.289C1176.62 190.377 1171.06 175.515 1171.06 157.704C1171.06 139.892 1176.62 125.03 1187.74 113.118C1198.86 101.206 1212.47 95.1934 1228.58 95.1934C1242.65 95.1934 1253.99 99.9582 1262.73 109.374V47.3181ZM1235.27 187.2L1235.16 187.314C1243.44 187.314 1250.25 184.591 1255.58 179.032C1260.91 173.473 1263.64 166.326 1263.64 157.59C1263.64 148.855 1260.91 141.821 1255.58 136.375C1250.25 130.93 1243.44 128.207 1235.27 128.207C1227.22 128.207 1220.64 130.93 1215.42 136.375C1210.2 141.821 1207.59 148.855 1207.59 157.59C1207.59 166.439 1210.2 173.586 1215.42 179.032C1220.64 184.478 1227.22 187.2 1235.27 187.2ZM1404.38 98.4834L1441.59 98.7103V212.726C1441.59 229.403 1435.92 243.017 1424.57 253.454C1413.23 263.892 1398.14 269.11 1379.19 269.11C1352.3 269.11 1333.13 258.786 1321.79 238.139L1353.89 226.567C1359.22 234.849 1367.96 238.933 1380.1 238.933C1387.93 238.933 1393.94 236.55 1398.02 231.786C1402.11 227.021 1404.15 220.668 1404.15 212.84V201.495C1395.41 210.911 1384.52 215.676 1371.36 215.676C1354.69 215.676 1340.85 209.89 1329.95 198.318C1319.06 186.746 1313.62 172.452 1313.62 155.321C1313.62 137.283 1319.06 122.761 1329.95 111.757C1340.85 100.752 1354.69 95.1934 1371.59 95.1934C1384.75 95.1934 1395.64 99.9582 1404.38 109.374V98.4834ZM1378.06 182.549H1377.94C1386.11 182.549 1392.69 180.053 1397.68 175.061C1402.68 170.07 1405.17 163.603 1405.17 155.548C1405.17 147.493 1402.68 141.027 1397.68 136.035C1392.69 131.043 1386.11 128.547 1377.94 128.547C1369.78 128.547 1363.08 131.043 1357.98 136.035C1352.87 141.027 1350.38 147.493 1350.38 155.548C1350.38 163.603 1352.98 170.07 1358.09 175.061C1363.2 180.053 1369.89 182.549 1378.06 182.549ZM1520.5 220.214L1520.39 220.327C1500.99 220.327 1485.33 214.541 1473.3 202.97C1461.28 191.398 1455.27 176.423 1455.27 157.931C1455.27 139.779 1461.05 124.804 1472.62 113.005C1484.19 101.206 1499.28 95.3068 1518 95.3068C1537.06 95.3068 1552.15 101.093 1563.27 112.664C1574.39 124.236 1579.95 138.871 1579.95 156.569C1579.95 161.221 1579.61 165.305 1579.04 168.822H1491.46C1494.29 182.435 1504.16 189.242 1521.07 189.242C1532.41 189.242 1540.35 185.272 1544.78 177.217L1578.24 186.973C1574.5 195.482 1567.58 203.197 1557.37 210.003C1547.16 216.81 1534.91 220.214 1520.5 220.214ZM1491.57 146.586H1543.76C1543.19 141.027 1540.58 136.262 1535.81 132.291C1531.05 128.32 1525.04 126.392 1517.78 126.392C1510.52 126.392 1504.5 128.434 1499.85 132.405C1495.2 136.375 1492.48 141.14 1491.57 146.586Z" fill="#2AC558"/>
</svg>
